STARTFONT 2.1
COMMENT Recovered from arc.ast's:NONS AST (MIT CADR AST source recovered from ARC!!!)
FONT MIT-CADR-NONS
SIZE 25 72 72
FONTBOUNDINGBOX 23 25 0 -7
STARTPROPERTIES 2
FONT_ASCENT 18
FONT_DESCENT 7
ENDPROPERTIES
CHARS 96
STARTCHAR C0000
ENCODING -1 0
SWIDTH 320 0
DWIDTH 8 0
BBX 8 25 0 -7
BITMAP
C3
E7
3C
18
3C
E7
C3
E7
3C
18
3C
E7
C3
E7
3C
18
3C
E7
C3
E7
3C
18
3C
E7
C3
ENDCHAR
STARTCHAR C0018
ENCODING -1 24
SWIDTH 920 0
DWIDTH 23 0
BBX 23 25 0 -7
BITMAP
000000
000000
000000
000000
000000
000000
000000
000000
000000
000000
000000
000000
000000
000000
000000
000000
000000
000000
000000
000000
000000
000000
000000
FFFFFE
FFFFFE
ENDCHAR
STARTCHAR C0020
ENCODING -1 32
SWIDTH 320 0
DWIDTH 8 0
BBX 1 25 0 -7
BITMAP
00
00
00
00
00
00
00
00
00
00
00
00
00
00
00
00
00
00
00
00
00
00
00
00
00
ENDCHAR
STARTCHAR C0021
ENCODING -1 33
SWIDTH 240 0
DWIDTH 6 0
BBX 2 25 2 -7
BITMAP
00
00
00
C0
C0
C0
C0
C0
C0
C0
C0
C0
C0
00
00
C0
C0
C0
00
00
00
00
00
00
00
ENDCHAR
STARTCHAR C0022
ENCODING -1 34
SWIDTH 400 0
DWIDTH 10 0
BBX 6 25 2 -7
BITMAP
00
00
00
CC
CC
CC
CC
CC
CC
CC
00
00
00
00
00
00
00
00
00
00
00
00
00
00
00
ENDCHAR
STARTCHAR C0023
ENCODING -1 35
SWIDTH 640 0
DWIDTH 16 0
BBX 14 25 1 -7
BITMAP
0000
0000
0000
0318
0318
0630
0630
7FFC
7FFC
0C60
0C60
18C0
FFF8
FFF8
3180
3180
6300
6300
0000
0000
0000
0000
0000
0000
0000
ENDCHAR
STARTCHAR C0024
ENCODING -1 36
SWIDTH 640 0
DWIDTH 16 0
BBX 13 25 1 -7
BITMAP
0000
0300
0300
0FE0
3FF0
7338
6318
6300
7300
3FC0
1FF0
0378
0318
C318
C318
E338
7FF0
1FC0
0300
0300
0000
0000
0000
0000
0000
ENDCHAR
STARTCHAR C0025
ENCODING -1 37
SWIDTH 680 0
DWIDTH 17 0
BBX 15 25 1 -7
BITMAP
0000
0000
7830
FC30
CC60
CC60
FCC0
78C0
0180
0180
0300
0300
063C
067E
0C66
0C66
187E
183C
0000
0000
0000
0000
0000
0000
0000
ENDCHAR
STARTCHAR C0026
ENCODING -1 38
SWIDTH 680 0
DWIDTH 17 0
BBX 13 25 2 -7
BITMAP
0000
0000
0000
1E00
3F00
6180
6180
6180
3F00
1E00
3E00
7710
E3B8
C1F0
C1E0
E3F0
7F38
3E10
0000
0000
0000
0000
0000
0000
0000
ENDCHAR
STARTCHAR C0027
ENCODING -1 39
SWIDTH 240 0
DWIDTH 6 0
BBX 2 25 2 -7
BITMAP
00
00
00
C0
C0
C0
C0
C0
C0
C0
00
00
00
00
00
00
00
00
00
00
00
00
00
00
00
ENDCHAR
STARTCHAR C0028
ENCODING -1 40
SWIDTH 400 0
DWIDTH 10 0
BBX 7 25 2 -7
BITMAP
00
06
0C
18
30
30
60
60
C0
C0
C0
C0
C0
C0
C0
60
60
30
30
18
0C
06
00
00
00
ENDCHAR
STARTCHAR C0029
ENCODING -1 41
SWIDTH 400 0
DWIDTH 10 0
BBX 7 25 1 -7
BITMAP
00
C0
60
30
18
18
0C
0C
06
06
06
06
06
06
06
0C
0C
18
18
30
60
C0
00
00
00
ENDCHAR
STARTCHAR C002A
ENCODING -1 42
SWIDTH 480 0
DWIDTH 12 0
BBX 10 25 1 -7
BITMAP
0000
0000
0000
CCC0
6D80
6D80
3F00
1E00
3F00
6D80
6D80
CCC0
0000
0000
0000
0000
0000
0000
0000
0000
0000
0000
0000
0000
0000
ENDCHAR
STARTCHAR C002B
ENCODING -1 43
SWIDTH 560 0
DWIDTH 14 0
BBX 12 25 1 -7
BITMAP
0000
0000
0000
0000
0000
0600
0600
0600
0600
0600
FFF0
FFF0
0600
0600
0600
0600
0600
0000
0000
0000
0000
0000
0000
0000
0000
ENDCHAR
STARTCHAR C002C
ENCODING -1 44
SWIDTH 280 0
DWIDTH 7 0
BBX 3 25 2 -7
BITMAP
00
00
00
00
00
00
00
00
00
00
00
00
00
00
00
E0
E0
E0
20
60
C0
00
00
00
00
ENDCHAR
STARTCHAR C002D
ENCODING -1 45
SWIDTH 480 0
DWIDTH 12 0
BBX 8 25 2 -7
BITMAP
00
00
00
00
00
00
00
00
00
00
FF
FF
00
00
00
00
00
00
00
00
00
00
00
00
00
ENDCHAR
STARTCHAR C002E
ENCODING -1 46
SWIDTH 280 0
DWIDTH 7 0
BBX 3 25 2 -7
BITMAP
00
00
00
00
00
00
00
00
00
00
00
00
00
00
00
E0
E0
E0
00
00
00
00
00
00
00
ENDCHAR
STARTCHAR C002F
ENCODING -1 47
SWIDTH 480 0
DWIDTH 12 0
BBX 8 25 2 -7
BITMAP
00
03
03
03
06
06
0C
0C
0C
18
18
18
30
30
30
60
60
C0
C0
C0
00
00
00
00
00
ENDCHAR
STARTCHAR C0030
ENCODING -1 48
SWIDTH 520 0
DWIDTH 13 0
BBX 11 25 1 -7
BITMAP
0000
0000
0000
0E00
3F80
71C0
60C0
C060
C060
C060
C060
C060
C060
C060
60E0
71C0
3F80
0E00
0000
0000
0000
0000
0000
0000
0000
ENDCHAR
STARTCHAR C0031
ENCODING -1 49
SWIDTH 520 0
DWIDTH 13 0
BBX 6 25 3 -7
BITMAP
00
00
00
0C
1C
7C
FC
0C
0C
0C
0C
0C
0C
0C
0C
0C
0C
0C
00
00
00
00
00
00
00
ENDCHAR
STARTCHAR C0032
ENCODING -1 50
SWIDTH 520 0
DWIDTH 13 0
BBX 11 25 1 -7
BITMAP
0000
0000
0000
0F00
3FC0
70E0
6060
0060
00E0
01C0
0380
0700
1C00
3800
6000
C000
FFE0
FFE0
0000
0000
0000
0000
0000
0000
0000
ENDCHAR
STARTCHAR C0033
ENCODING -1 51
SWIDTH 520 0
DWIDTH 13 0
BBX 11 25 1 -7
BITMAP
0000
0000
0000
1F00
3F80
60C0
60C0
00C0
0180
0F00
0F80
00C0
0060
C060
C060
E0C0
7FC0
1F00
0000
0000
0000
0000
0000
0000
0000
ENDCHAR
STARTCHAR C0034
ENCODING -1 52
SWIDTH 520 0
DWIDTH 13 0
BBX 11 25 1 -7
BITMAP
0000
0000
0000
0780
0D80
0D80
1980
1980
3180
3180
6180
6180
C180
FFE0
FFE0
0180
0180
0180
0000
0000
0000
0000
0000
0000
0000
ENDCHAR
STARTCHAR C0035
ENCODING -1 53
SWIDTH 520 0
DWIDTH 13 0
BBX 11 25 1 -7
BITMAP
0000
0000
0000
1FC0
1FC0
1800
3800
3000
3F00
7FC0
70C0
6060
0060
0060
C060
E0C0
7FC0
1F00
0000
0000
0000
0000
0000
0000
0000
ENDCHAR
STARTCHAR C0036
ENCODING -1 54
SWIDTH 520 0
DWIDTH 13 0
BBX 11 25 1 -7
BITMAP
0000
0000
0000
1F80
3FC0
70E0
6060
C000
DF00
FFC0
E0E0
C060
C060
C060
C060
60E0
7FC0
1F00
0000
0000
0000
0000
0000
0000
0000
ENDCHAR
STARTCHAR C0037
ENCODING -1 55
SWIDTH 520 0
DWIDTH 13 0
BBX 11 25 1 -7
BITMAP
0000
0000
0000
FFE0
FFE0
0060
00C0
0180
0300
0600
0E00
1C00
3800
3800
7000
7000
E000
E000
0000
0000
0000
0000
0000
0000
0000
ENDCHAR
STARTCHAR C0038
ENCODING -1 56
SWIDTH 520 0
DWIDTH 13 0
BBX 11 25 1 -7
BITMAP
0000
0000
0000
1F00
3F80
71C0
60C0
60C0
3180
1F00
3F80
71C0
E0E0
C060
C060
E0E0
7FC0
3F80
0000
0000
0000
0000
0000
0000
0000
ENDCHAR
STARTCHAR C0039
ENCODING -1 57
SWIDTH 520 0
DWIDTH 13 0
BBX 11 25 1 -7
BITMAP
0000
0000
0000
1F00
7FC0
E0E0
C060
C060
C060
C060
E0E0
7FE0
1F60
0060
4060
E0C0
7FC0
1F00
0000
0000
0000
0000
0000
0000
0000
ENDCHAR
STARTCHAR C003A
ENCODING -1 58
SWIDTH 280 0
DWIDTH 7 0
BBX 3 25 2 -7
BITMAP
00
00
00
00
00
00
00
00
00
E0
E0
E0
00
00
00
E0
E0
E0
00
00
00
00
00
00
00
ENDCHAR
STARTCHAR C003B
ENCODING -1 59
SWIDTH 280 0
DWIDTH 7 0
BBX 3 25 2 -7
BITMAP
00
00
00
00
00
00
00
00
00
E0
E0
E0
00
00
00
E0
E0
E0
20
60
C0
00
00
00
00
ENDCHAR
STARTCHAR C003C
ENCODING -1 60
SWIDTH 520 0
DWIDTH 13 0
BBX 9 25 2 -7
BITMAP
0000
0000
0000
0180
0300
0600
0C00
1800
3000
6000
C000
6000
3000
1800
0C00
0600
0300
0180
0000
0000
0000
0000
0000
0000
0000
ENDCHAR
STARTCHAR C003D
ENCODING -1 61
SWIDTH 520 0
DWIDTH 13 0
BBX 9 25 2 -7
BITMAP
0000
0000
0000
0000
0000
0000
0000
FF80
FF80
0000
0000
0000
FF80
FF80
0000
0000
0000
0000
0000
0000
0000
0000
0000
0000
0000
ENDCHAR
STARTCHAR C003E
ENCODING -1 62
SWIDTH 520 0
DWIDTH 13 0
BBX 9 25 2 -7
BITMAP
0000
0000
0000
C000
6000
3000
1800
0C00
0600
0300
0180
0300
0600
0C00
1800
3000
6000
C000
0000
0000
0000
0000
0000
0000
0000
ENDCHAR
STARTCHAR C003F
ENCODING -1 63
SWIDTH 520 0
DWIDTH 13 0
BBX 9 25 2 -7
BITMAP
0000
0000
0000
1E00
7F00
C180
C180
0180
0300
0600
0C00
1800
3000
3000
0000
0000
3000
3000
0000
0000
0000
0000
0000
0000
0000
ENDCHAR
STARTCHAR C0040
ENCODING -1 64
SWIDTH 640 0
DWIDTH 16 0
BBX 12 25 2 -7
BITMAP
0000
0000
0000
0F80
3FE0
7070
6030
C3F0
C770
C630
C630
C770
C3E0
C000
6000
7060
3FE0
0FC0
0000
0000
0000
0000
0000
0000
0000
ENDCHAR
STARTCHAR C0041
ENCODING -1 65
SWIDTH 600 0
DWIDTH 15 0
BBX 13 25 1 -7
BITMAP
0000
0000
0000
0700
0700
0500
0D80
0D80
18C0
18C0
18C0
3060
3060
7FF0
7FF0
6030
C018
C018
0000
0000
0000
0000
0000
0000
0000
ENDCHAR
STARTCHAR C0042
ENCODING -1 66
SWIDTH 560 0
DWIDTH 14 0
BBX 11 25 2 -7
BITMAP
0000
0000
0000
FF00
FF80
C1C0
C0C0
C0C0
C180
FF00
FF80
C1C0
C060
C060
C060
C0E0
FFC0
FF80
0000
0000
0000
0000
0000
0000
0000
ENDCHAR
STARTCHAR C0043
ENCODING -1 67
SWIDTH 560 0
DWIDTH 14 0
BBX 12 25 1 -7
BITMAP
0000
0000
0000
0F80
3FE0
7070
6030
E030
C000
C000
C000
C000
C000
E030
6030
7070
3FE0
0F80
0000
0000
0000
0000
0000
0000
0000
ENDCHAR
STARTCHAR C0044
ENCODING -1 68
SWIDTH 600 0
DWIDTH 15 0
BBX 12 25 2 -7
BITMAP
0000
0000
0000
FF00
FFC0
C0E0
C060
C030
C030
C030
C030
C030
C030
C030
C060
C0E0
FFC0
FF00
0000
0000
0000
0000
0000
0000
0000
ENDCHAR
STARTCHAR C0045
ENCODING -1 69
SWIDTH 560 0
DWIDTH 14 0
BBX 10 25 2 -7
BITMAP
0000
0000
0000
FFC0
FFC0
C000
C000
C000
C000
FF80
FF80
C000
C000
C000
C000
C000
FFC0
FFC0
0000
0000
0000
0000
0000
0000
0000
ENDCHAR
STARTCHAR C0046
ENCODING -1 70
SWIDTH 480 0
DWIDTH 12 0
BBX 9 25 2 -7
BITMAP
0000
0000
0000
FF80
FF80
C000
C000
C000
C000
FF00
FF00
C000
C000
C000
C000
C000
C000
C000
0000
0000
0000
0000
0000
0000
0000
ENDCHAR
STARTCHAR C0047
ENCODING -1 71
SWIDTH 640 0
DWIDTH 16 0
BBX 13 25 1 -7
BITMAP
0000
0000
0000
0FC0
3FF0
7038
6018
C018
C000
C000
C1F8
C1F8
C018
E018
6038
7078
3FF8
0FD8
0000
0000
0000
0000
0000
0000
0000
ENDCHAR
STARTCHAR C0048
ENCODING -1 72
SWIDTH 600 0
DWIDTH 15 0
BBX 11 25 2 -7
BITMAP
0000
0000
0000
C060
C060
C060
C060
C060
C060
FFE0
FFE0
C060
C060
C060
C060
C060
C060
C060
0000
0000
0000
0000
0000
0000
0000
ENDCHAR
STARTCHAR C0049
ENCODING -1 73
SWIDTH 240 0
DWIDTH 6 0
BBX 2 25 2 -7
BITMAP
00
00
00
C0
C0
C0
C0
C0
C0
C0
C0
C0
C0
C0
C0
C0
C0
C0
00
00
00
00
00
00
00
ENDCHAR
STARTCHAR C004A
ENCODING -1 74
SWIDTH 480 0
DWIDTH 12 0
BBX 9 25 1 -7
BITMAP
0000
0000
0000
0180
0180
0180
0180
0180
0180
0180
0180
0180
C180
C180
C180
E380
7F00
3E00
0000
0000
0000
0000
0000
0000
0000
ENDCHAR
STARTCHAR C004B
ENCODING -1 75
SWIDTH 560 0
DWIDTH 14 0
BBX 12 25 2 -7
BITMAP
0000
0000
0000
C0C0
C180
C300
C600
CC00
D800
F000
F800
DC00
CE00
C700
C380
C1C0
C0E0
C070
0000
0000
0000
0000
0000
0000
0000
ENDCHAR
STARTCHAR C004C
ENCODING -1 76
SWIDTH 480 0
DWIDTH 12 0
BBX 9 25 2 -7
BITMAP
0000
0000
0000
C000
C000
C000
C000
C000
C000
C000
C000
C000
C000
C000
C000
C000
FF80
FF80
0000
0000
0000
0000
0000
0000
0000
ENDCHAR
STARTCHAR C004D
ENCODING -1 77
SWIDTH 760 0
DWIDTH 19 0
BBX 15 25 2 -7
BITMAP
0000
0000
0000
F01E
F01E
F01E
D836
D836
D836
D836
CC66
CC66
CC66
C6C6
C6C6
C6C6
C386
C386
0000
0000
0000
0000
0000
0000
0000
ENDCHAR
STARTCHAR C004E
ENCODING -1 78
SWIDTH 600 0
DWIDTH 15 0
BBX 11 25 2 -7
BITMAP
0000
0000
0000
F060
F060
D860
D860
CC60
CC60
CC60
C660
C660
C660
C360
C360
C1E0
C1E0
C0E0
0000
0000
0000
0000
0000
0000
0000
ENDCHAR
STARTCHAR C004F
ENCODING -1 79
SWIDTH 600 0
DWIDTH 15 0
BBX 13 25 1 -7
BITMAP
0000
0000
0000
0F80
3FE0
7070
6030
E038
C018
C018
C018
C018
C018
E038
6030
7070
3FE0
0F80
0000
0000
0000
0000
0000
0000
0000
ENDCHAR
STARTCHAR C0050
ENCODING -1 80
SWIDTH 520 0
DWIDTH 13 0
BBX 10 25 2 -7
BITMAP
0000
0000
0000
FE00
FF80
C1C0
C0C0
C0C0
C0C0
C1C0
FF80
FE00
C000
C000
C000
C000
C000
C000
0000
0000
0000
0000
0000
0000
0000
ENDCHAR
STARTCHAR C0051
ENCODING -1 81
SWIDTH 600 0
DWIDTH 15 0
BBX 13 25 1 -7
BITMAP
0000
0000
0000
0F80
3FE0
7070
6030
C018
C018
C018
C018
C018
C018
C118
63B8
71F0
3FE0
0FF0
0038
0010
0000
0000
0000
0000
0000
ENDCHAR
STARTCHAR C0052
ENCODING -1 82
SWIDTH 600 0
DWIDTH 15 0
BBX 11 25 2 -7
BITMAP
0000
0000
0000
FF80
FFC0
C0E0
C060
C060
C0E0
FFC0
FF80
C0C0
C060
C060
C060
C060
C060
C060
0000
0000
0000
0000
0000
0000
0000
ENDCHAR
STARTCHAR C0053
ENCODING -1 83
SWIDTH 560 0
DWIDTH 14 0
BBX 12 25 1 -7
BITMAP
0000
0000
0000
0F80
3FE0
7070
6030
6000
7800
3F80
0FE0
00F0
0030
C030
C030
E070
7FE0
1F80
0000
0000
0000
0000
0000
0000
0000
ENDCHAR
STARTCHAR C0054
ENCODING -1 84
SWIDTH 560 0
DWIDTH 14 0
BBX 12 25 1 -7
BITMAP
0000
0000
0000
FFF0
FFF0
0600
0600
0600
0600
0600
0600
0600
0600
0600
0600
0600
0600
0600
0000
0000
0000
0000
0000
0000
0000
ENDCHAR
STARTCHAR C0055
ENCODING -1 85
SWIDTH 600 0
DWIDTH 15 0
BBX 11 25 2 -7
BITMAP
0000
0000
0000
C060
C060
C060
C060
C060
C060
C060
C060
C060
C060
C060
C060
E0E0
7FC0
3F80
0000
0000
0000
0000
0000
0000
0000
ENDCHAR
STARTCHAR C0056
ENCODING -1 86
SWIDTH 600 0
DWIDTH 15 0
BBX 13 25 1 -7
BITMAP
0000
0000
0000
C018
C018
6030
6030
6030
3060
3060
18C0
18C0
18C0
0D80
0D80
0500
0700
0700
0000
0000
0000
0000
0000
0000
0000
ENDCHAR
STARTCHAR C0057
ENCODING -1 87
SWIDTH 920 0
DWIDTH 23 0
BBX 21 25 1 -7
BITMAP
000000
000000
000000
C07018
C07018
C07018
60D830
60D830
60D830
318C60
318C60
318C60
1B06C0
1B06C0
1B06C0
0E0380
0E0380
0E0380
000000
000000
000000
000000
000000
000000
000000
ENDCHAR
STARTCHAR C0058
ENCODING -1 88
SWIDTH 560 0
DWIDTH 14 0
BBX 12 25 1 -7
BITMAP
0000
0000
0000
6060
6060
30C0
30C0
1980
0F00
0600
0F00
0F00
1980
30C0
30C0
6060
C030
C030
0000
0000
0000
0000
0000
0000
0000
ENDCHAR
STARTCHAR C0059
ENCODING -1 89
SWIDTH 560 0
DWIDTH 14 0
BBX 12 25 1 -7
BITMAP
0000
0000
0000
C030
C030
6060
6060
30C0
30C0
1980
0F00
0F00
0600
0600
0600
0600
0600
0600
0000
0000
0000
0000
0000
0000
0000
ENDCHAR
STARTCHAR C005A
ENCODING -1 90
SWIDTH 520 0
DWIDTH 13 0
BBX 11 25 1 -7
BITMAP
0000
0000
0000
7FE0
7FE0
00C0
0180
0180
0300
0600
0C00
0C00
1800
3000
6000
6000
FFE0
FFE0
0000
0000
0000
0000
0000
0000
0000
ENDCHAR
STARTCHAR C005B
ENCODING -1 91
SWIDTH 440 0
DWIDTH 11 0
BBX 7 25 2 -7
BITMAP
FE
FE
C0
C0
C0
C0
C0
C0
C0
C0
C0
C0
C0
C0
C0
C0
C0
C0
C0
C0
FE
FE
00
00
00
ENDCHAR
STARTCHAR C005C
ENCODING -1 92
SWIDTH 560 0
DWIDTH 14 0
BBX 12 25 1 -7
BITMAP
C000
C000
6000
6000
3000
3000
1800
1800
0C00
0C00
0600
0600
0300
0300
0180
0180
00C0
00C0
0060
0060
0030
0030
0000
0000
0000
ENDCHAR
STARTCHAR C005D
ENCODING -1 93
SWIDTH 440 0
DWIDTH 11 0
BBX 7 25 2 -7
BITMAP
FE
FE
06
06
06
06
06
06
06
06
06
06
06
06
06
06
06
06
06
06
FE
FE
00
00
00
ENDCHAR
STARTCHAR C005E
ENCODING -1 94
SWIDTH 400 0
DWIDTH 10 0
BBX 8 25 1 -7
BITMAP
00
00
00
00
00
18
18
3C
7E
FF
18
18
18
18
18
18
18
00
00
00
00
00
00
00
00
ENDCHAR
STARTCHAR C005F
ENCODING -1 95
SWIDTH 560 0
DWIDTH 14 0
BBX 12 25 1 -7
BITMAP
0000
0000
0000
0000
0000
0000
0000
0800
1800
3800
FFF0
FFF0
3800
1800
0800
0000
0000
0000
0000
0000
0000
0000
0000
0000
0000
ENDCHAR
STARTCHAR C0061
ENCODING -1 97
SWIDTH 480 0
DWIDTH 12 0
BBX 10 25 1 -7
BITMAP
0000
0000
0000
0000
0000
0000
0000
3E00
7F00
6380
0180
0F80
7F80
E180
C180
C380
FFC0
7DC0
0000
0000
0000
0000
0000
0000
0000
ENDCHAR
STARTCHAR C0062
ENCODING -1 98
SWIDTH 440 0
DWIDTH 11 0
BBX 9 25 1 -7
BITMAP
0000
0000
0000
C000
C000
C000
C000
DE00
FF00
E380
C180
C180
C180
C180
C180
E380
FF00
DE00
0000
0000
0000
0000
0000
0000
0000
ENDCHAR
STARTCHAR C0063
ENCODING -1 99
SWIDTH 480 0
DWIDTH 12 0
BBX 10 25 1 -7
BITMAP
0000
0000
0000
0000
0000
0000
0000
0E00
3F80
71C0
60C0
C000
C000
C000
60C0
71C0
3F80
0E00
0000
0000
0000
0000
0000
0000
0000
ENDCHAR
STARTCHAR C0064
ENCODING -1 100
SWIDTH 440 0
DWIDTH 11 0
BBX 9 25 1 -7
BITMAP
0000
0000
0000
0180
0180
0180
0180
3D80
7F80
E380
C180
C180
C180
C180
C180
E380
7F80
3D80
0000
0000
0000
0000
0000
0000
0000
ENDCHAR
STARTCHAR C0065
ENCODING -1 101
SWIDTH 520 0
DWIDTH 13 0
BBX 11 25 1 -7
BITMAP
0000
0000
0000
0000
0000
0000
0000
1F00
3F80
71C0
60C0
FFE0
FFE0
C000
6060
70C0
3F80
1F00
0000
0000
0000
0000
0000
0000
0000
ENDCHAR
STARTCHAR C0066
ENCODING -1 102
SWIDTH 360 0
DWIDTH 9 0
BBX 7 25 1 -7
BITMAP
00
00
00
1E
3E
30
30
FE
FE
30
30
30
30
30
30
30
30
30
00
00
00
00
00
00
00
ENDCHAR
STARTCHAR C0067
ENCODING -1 103
SWIDTH 440 0
DWIDTH 11 0
BBX 9 25 1 -7
BITMAP
0000
0000
0000
0000
0000
0000
0000
3D80
7F80
E380
C180
C180
C180
C180
C180
E380
7F80
3D80
0180
C180
7F00
3E00
0000
0000
0000
ENDCHAR
STARTCHAR C0068
ENCODING -1 104
SWIDTH 440 0
DWIDTH 11 0
BBX 9 25 1 -7
BITMAP
0000
0000
0000
C000
C000
C000
C000
DE00
FF00
E380
C180
C180
C180
C180
C180
C180
C180
C180
0000
0000
0000
0000
0000
0000
0000
ENDCHAR
STARTCHAR C0069
ENCODING -1 105
SWIDTH 240 0
DWIDTH 6 0
BBX 2 25 2 -7
BITMAP
00
00
00
C0
C0
C0
00
C0
C0
C0
C0
C0
C0
C0
C0
C0
C0
C0
00
00
00
00
00
00
00
ENDCHAR
STARTCHAR C006A
ENCODING -1 106
SWIDTH 280 0
DWIDTH 7 0
BBX 5 25 0 -7
BITMAP
00
00
00
18
18
00
00
18
18
18
18
18
18
18
18
18
18
18
18
38
F8
F0
00
00
00
ENDCHAR
STARTCHAR C006B
ENCODING -1 107
SWIDTH 440 0
DWIDTH 11 0
BBX 10 25 1 -7
BITMAP
0000
0000
0000
C000
C000
C000
C000
C300
C600
CC00
D800
F000
F800
DC00
CE00
C700
C380
C1C0
0000
0000
0000
0000
0000
0000
0000
ENDCHAR
STARTCHAR C006C
ENCODING -1 108
SWIDTH 240 0
DWIDTH 6 0
BBX 2 25 2 -7
BITMAP
00
00
00
C0
C0
C0
C0
C0
C0
C0
C0
C0
C0
C0
C0
C0
C0
C0
00
00
00
00
00
00
00
ENDCHAR
STARTCHAR C006D
ENCODING -1 109
SWIDTH 640 0
DWIDTH 16 0
BBX 14 25 1 -7
BITMAP
0000
0000
0000
0000
0000
0000
0000
DE78
FFFC
E38C
C30C
C30C
C30C
C30C
C30C
C30C
C30C
C30C
0000
0000
0000
0000
0000
0000
0000
ENDCHAR
STARTCHAR C006E
ENCODING -1 110
SWIDTH 440 0
DWIDTH 11 0
BBX 9 25 1 -7
BITMAP
0000
0000
0000
0000
0000
0000
0000
DE00
FF00
E180
C180
C180
C180
C180
C180
C180
C180
C180
0000
0000
0000
0000
0000
0000
0000
ENDCHAR
STARTCHAR C006F
ENCODING -1 111
SWIDTH 520 0
DWIDTH 13 0
BBX 11 25 1 -7
BITMAP
0000
0000
0000
0000
0000
0000
0000
0E00
3F80
71C0
60C0
C060
C060
C060
60C0
71C0
3F80
0E00
0000
0000
0000
0000
0000
0000
0000
ENDCHAR
STARTCHAR C0070
ENCODING -1 112
SWIDTH 440 0
DWIDTH 11 0
BBX 9 25 1 -7
BITMAP
0000
0000
0000
0000
0000
0000
0000
DE00
FF00
E380
C180
C180
C180
C180
C180
E380
FF00
DE00
C000
C000
C000
C000
0000
0000
0000
ENDCHAR
STARTCHAR C0071
ENCODING -1 113
SWIDTH 440 0
DWIDTH 11 0
BBX 9 25 1 -7
BITMAP
0000
0000
0000
0000
0000
0000
0000
3D80
7F80
E380
C180
C180
C180
C180
C180
E380
7F80
3F80
0180
0180
0180
0180
0000
0000
0000
ENDCHAR
STARTCHAR C0072
ENCODING -1 114
SWIDTH 280 0
DWIDTH 7 0
BBX 6 25 1 -7
BITMAP
00
00
00
00
00
00
00
DC
FC
E0
C0
C0
C0
C0
C0
C0
C0
C0
00
00
00
00
00
00
00
ENDCHAR
STARTCHAR C0073
ENCODING -1 115
SWIDTH 440 0
DWIDTH 11 0
BBX 9 25 1 -7
BITMAP
0000
0000
0000
0000
0000
0000
0000
1E00
3F00
6180
6000
3C00
1F00
0780
C180
C180
7F00
3E00
0000
0000
0000
0000
0000
0000
0000
ENDCHAR
STARTCHAR C0074
ENCODING -1 116
SWIDTH 320 0
DWIDTH 8 0
BBX 6 25 1 -7
BITMAP
00
00
00
00
30
30
30
FC
FC
30
30
30
30
30
30
30
3C
1C
00
00
00
00
00
00
00
ENDCHAR
STARTCHAR C0075
ENCODING -1 117
SWIDTH 440 0
DWIDTH 11 0
BBX 9 25 1 -7
BITMAP
0000
0000
0000
0000
0000
0000
0000
C180
C180
C180
C180
C180
C180
C180
C180
C380
7F80
3D80
0000
0000
0000
0000
0000
0000
0000
ENDCHAR
STARTCHAR C0076
ENCODING -1 118
SWIDTH 520 0
DWIDTH 13 0
BBX 11 25 1 -7
BITMAP
0000
0000
0000
0000
0000
0000
0000
C060
C060
60C0
60C0
60C0
3180
3180
1B00
1B00
0E00
0E00
0000
0000
0000
0000
0000
0000
0000
ENDCHAR
STARTCHAR C0077
ENCODING -1 119
SWIDTH 760 0
DWIDTH 19 0
BBX 17 25 1 -7
BITMAP
000000
000000
000000
000000
000000
000000
000000
C1C180
C1C180
C14180
636300
636300
622300
363600
363600
3C1E00
1C1C00
1C1C00
000000
000000
000000
000000
000000
000000
000000
ENDCHAR
STARTCHAR C0078
ENCODING -1 120
SWIDTH 520 0
DWIDTH 13 0
BBX 11 25 1 -7
BITMAP
0000
0000
0000
0000
0000
0000
0000
60C0
60C0
3180
1B00
1F00
0E00
1F00
3180
60C0
C060
C060
0000
0000
0000
0000
0000
0000
0000
ENDCHAR
STARTCHAR C0079
ENCODING -1 121
SWIDTH 520 0
DWIDTH 13 0
BBX 11 25 1 -7
BITMAP
0000
0000
0000
0000
0000
0000
0000
C060
C060
60C0
60C0
60C0
3180
3180
1B00
1F00
0E00
0E00
0600
0C00
7C00
7800
0000
0000
0000
ENDCHAR
STARTCHAR C007A
ENCODING -1 122
SWIDTH 480 0
DWIDTH 12 0
BBX 10 25 1 -7
BITMAP
0000
0000
0000
0000
0000
0000
0000
7F80
7F80
0300
0600
0C00
1800
3000
6000
C000
FFC0
FFC0
0000
0000
0000
0000
0000
0000
0000
ENDCHAR
STARTCHAR C007B
ENCODING -1 123
SWIDTH 480 0
DWIDTH 12 0
BBX 9 25 1 -7
BITMAP
0780
0F80
1C00
1800
1800
1800
1800
1800
1800
3000
E000
3000
1800
1800
1800
1800
1800
1800
1800
1C00
0F80
0780
0000
0000
0000
ENDCHAR
STARTCHAR C007C
ENCODING -1 124
SWIDTH 240 0
DWIDTH 6 0
BBX 2 25 2 -7
BITMAP
C0
C0
C0
C0
C0
C0
C0
C0
C0
C0
C0
C0
C0
C0
C0
C0
C0
C0
C0
C0
C0
C0
00
00
00
ENDCHAR
STARTCHAR C007D
ENCODING -1 125
SWIDTH 480 0
DWIDTH 12 0
BBX 9 25 2 -7
BITMAP
F000
F800
1C00
0C00
0C00
0C00
0C00
0C00
0C00
0600
0380
0600
0C00
0C00
0C00
0C00
0C00
0C00
0C00
1C00
F800
F000
0000
0000
0000
ENDCHAR
STARTCHAR C007E
ENCODING -1 126
SWIDTH 640 0
DWIDTH 16 0
BBX 14 25 1 -7
BITMAP
0000
0000
0000
0000
0000
0000
0000
0000
1E0C
3F18
63F0
C1E0
0000
0000
0000
0000
0000
0000
0000
0000
0000
0000
0000
0000
0000
ENDCHAR
ENDFONT
